<svg viewBox="0 0 64 45" fill="#fff" xmlns="http://www.w3.org/2000/svg" aria-hidden="true">
  <path d="M22.7734 16.3522c-.889-1.2535-2.1763-2.3256-4.2067-2.9977.9578 2.1673-.0771 3.7498-1.6399 6.1362-.5375.8202-1.1487 1.7537-1.7391 2.8506l4.5632 7.8685 4.9576-9.5569c-.4856-1.498-1.0275-3.0236-1.934-4.3007h-.0011Zm3.134 1.0788c3.0731-6.8967 8.4301-6.953 14.7111-7.0189 1.0208-.0107 2.0686-.0214 3.1638-.0693l4.512-7.96766-44.49217-.12958 4.39423 7.95184c.5583.0203 1.09067.0361 1.61967.0519 2.95317.0878 5.82907.1735 8.81217.7887l.0833.0174c2.8664.8158 4.6568 2.2726 5.8889 4.01.5167.741.9548 1.5338 1.307 2.3656Zm9.2391 2.1774c-1.5706-2.5701-2.6608-4.3548-2.0089-6.1452-2.6208.9104-4.7176 2.8732-6.0139 7.1548l5.1497 9.207 4.5069-7.4218c-.5634-1.0444-1.1301-1.9683-1.6338-2.7948Zm-1.9312 12.981-6.1407 10.9749-.9453 1.6901-.9949-1.6591-5.255-8.7615-.0164.0316-1.0247-1.7667-5.8984-10.1676-.3042-.5245.2732-.5408c.7431-1.4692 1.4935-2.6151 2.1408-3.6021 1.3971-2.1341 2.2005-3.3605.507-5.4472-1.9194-.2169-3.8421-.2744-5.80264-.3324-.77293-.0231-1.55037-.0462-2.2788-.076l-.63379-.0265-.30533-.5521L.918284 1.66192 0 0l1.90135.00506834L50.212.145349l1.9154.005632-.9425 1.664169-5.7576 10.16705-.3008.5318-.6118.0338c-1.2958.0721-2.6061.0856-3.8788.0991-1.4433.0147-2.8303.0293-4.1384.1482-1.9036 1.614-1.0141 3.0737.5633 5.6471.6113 1.0006 1.3065 2.1374 2.0011 3.485l.2862.5544-.3257.5368-5.8071 9.571Zm-12.1241-.0907 4.9677 8.2882 4.8934-8.7417-4.9982-8.9299-4.8629 9.3834Z"/>
</svg>